<?xml version="1.0" encoding="UTF-8"?>
<svg width="30px" height="30px" viewBox="0 0 30 30" version="1.1" xmlns="http://www.w3.org/2000/svg" xmlns:xlink="http://www.w3.org/1999/xlink">
    <!-- Generator: Sketch 53.1 (72631) - https://sketchapp.com -->
    <title>Group 3</title>
    <desc>Created with Sketch.</desc>
    <defs>
        <polygon id="path-1" points="0 0 30 0 30 30 0 30"></polygon>
    </defs>
    <g id="Page-1" stroke="none" stroke-width="1" fill="none" fill-rule="evenodd">
        <g id="Desktop-HD-Copy" transform="translate(-455.000000, -833.000000)">
            <g id="Group-4" transform="translate(417.000000, 816.000000)">
                <g id="Group-2" transform="translate(38.000000, 10.000000)">
                    <g id="Group-3" transform="translate(0.000000, 7.000000)">
                        <mask id="mask-2" fill="white">
                            <use xlink:href="#path-1"></use>
                        </mask>
                        <g id="Clip-2"></g>
                        <path d="M16.9285524,15 L29.6005236,2.328 C30.1331588,1.79536364 30.1331588,0.931909091 29.6005236,0.399272727 C29.0684339,-0.133090909 28.2044359,-0.133090909 27.6723462,0.399272727 L15.0001023,13.0715455 L2.32785835,0.399272727 C1.79576865,-0.133090909 0.93177061,-0.133090909 0.39968091,0.399272727 C-0.13322697,0.931909091 -0.13322697,1.79536364 0.39968091,2.328 L13.0713794,15 L0.39968091,27.672 C-0.13322697,28.2046364 -0.13322697,29.0680909 0.39968091,29.6007273 C0.665589396,29.8669091 1.01467951,30 1.36376963,30 C1.71258702,30 2.06167713,29.8669091 2.32785835,29.6007273 L15.0001023,16.9284545 L27.6723462,29.6007273 C27.9382547,29.8669091 28.2873448,30 28.6364349,30 C28.9852523,30 29.3343424,29.8669091 29.6005236,29.6007273 C30.1331588,29.0680909 30.1331588,28.2046364 29.6005236,27.672 L16.9285524,15 Z" id="Fill-1" fill="#FFFFFF" mask="url(#mask-2)"></path>
                    </g>
                </g>
            </g>
        </g>
    </g>
</svg>